<svg width="33" height="30" viewBox="0 0 33 30" fill="none" xmlns="http://www.w3.org/2000/svg">
<g clip-path="url(#clip0_1941_3229)">
<path d="M16.5 2.8125C20.0556 2.8125 23.4655 4.09654 25.9797 6.38214C28.4938 8.66774 29.9062 11.7677 29.9062 15C29.9062 18.2323 28.4938 21.3323 25.9797 23.6179C23.4655 25.9035 20.0556 27.1875 16.5 27.1875C12.9444 27.1875 9.53451 25.9035 7.02035 23.6179C4.50619 21.3323 3.09375 18.2323 3.09375 15C3.09375 11.7677 4.50619 8.66774 7.02035 6.38214C9.53451 4.09654 12.9444 2.8125 16.5 2.8125ZM16.5 30C20.8761 30 25.0729 28.4196 28.1673 25.6066C31.2616 22.7936 33 18.9782 33 15C33 11.0218 31.2616 7.20644 28.1673 4.3934C25.0729 1.58035 20.8761 0 16.5 0C12.1239 0 7.92709 1.58035 4.83274 4.3934C1.73839 7.20644 0 11.0218 0 15C0 18.9782 1.73839 22.7936 4.83274 25.6066C7.92709 28.4196 12.1239 30 16.5 30ZM12.852 18.3164C10.841 16.4883 10.841 13.5176 12.852 11.6895C14.8629 9.86133 18.1307 9.86133 20.1416 11.6895C20.7475 12.2402 21.7271 12.2402 22.3266 11.6895C22.926 11.1387 22.9324 10.248 22.3266 9.70312C19.1039 6.77344 13.8832 6.77344 10.6605 9.70312C7.43789 12.6328 7.43789 17.3789 10.6605 20.3086C13.8832 23.2383 19.1039 23.2383 22.3266 20.3086C22.9324 19.7578 22.9324 18.8672 22.3266 18.3223C21.7207 17.7773 20.741 17.7715 20.1416 18.3223C18.1307 20.1504 14.8629 20.1504 12.852 18.3223V18.3164Z" fill="black"/>
</g>
<defs>
<clipPath id="clip0_1941_3229">
<rect width="33" height="30" fill="white"/>
</clipPath>
</defs>
</svg>
