<svg width="20" height="8" viewBox="0 0 20 8" fill="none" xmlns="http://www.w3.org/2000/svg">
<g clip-path="url(#clip0_1934_1521)">
<path d="M0.625 4.80762C0.79076 4.80762 0.949732 4.83139 1.06694 4.87372C1.18415 4.91604 1.25 4.97344 1.25 5.03329V6.16168C1.25 6.28139 1.3817 6.39619 1.61612 6.48084C1.85054 6.56548 2.16848 6.61303 2.5 6.61303H17.5C17.8315 6.61303 18.1495 6.56548 18.3839 6.48084C18.6183 6.39619 18.75 6.28139 18.75 6.16168V5.03329C18.75 4.97344 18.8158 4.91604 18.9331 4.87372C19.0503 4.83139 19.2092 4.80762 19.375 4.80762C19.5408 4.80762 19.6997 4.83139 19.8169 4.87372C19.9342 4.91604 20 4.97344 20 5.03329V6.16168C20 6.40109 19.7366 6.6307 19.2678 6.79999C18.7989 6.96928 18.163 7.06439 17.5 7.06439H2.5C1.83696 7.06439 1.20107 6.96928 0.732233 6.79999C0.263392 6.6307 0 6.40109 0 6.16168V5.03329C0 4.97344 0.065848 4.91604 0.183058 4.87372C0.300269 4.83139 0.45924 4.80762 0.625 4.80762Z" fill="black"/>
<path d="M9.55756 5.68904C9.61561 5.71005 9.68458 5.72673 9.76052 5.7381C9.83645 5.74948 9.91785 5.75534 10.0001 5.75534C10.0823 5.75534 10.1637 5.74948 10.2396 5.7381C10.3155 5.72673 10.3845 5.71005 10.4426 5.68904L14.1926 4.33497C14.3099 4.2926 14.3758 4.23512 14.3758 4.17519C14.3758 4.11527 14.3099 4.05779 14.1926 4.01541C14.0752 3.97304 13.916 3.94923 13.7501 3.94923C13.5841 3.94923 13.4249 3.97304 13.3076 4.01541L10.6251 4.98447V1.01572C10.6251 0.955863 10.5592 0.898461 10.442 0.856138C10.3248 0.813816 10.1658 0.790039 10.0001 0.790039C9.8343 0.790039 9.67533 0.813816 9.55812 0.856138C9.44091 0.898461 9.37506 0.955863 9.37506 1.01572V4.98447L6.69256 4.01541C6.5752 3.97304 6.41603 3.94923 6.25006 3.94923C6.08409 3.94923 5.92492 3.97304 5.80756 4.01541C5.6902 4.05779 5.62427 4.11527 5.62427 4.17519C5.62427 4.23512 5.6902 4.2926 5.80756 4.33497L9.55756 5.68904Z" fill="black"/>
</g>
<defs>
<clipPath id="clip0_1934_1521">
<rect width="20" height="7.22166" fill="white" transform="translate(0 0.338867)"/>
</clipPath>
</defs>
</svg>
