<svg width="20" height="8" viewBox="0 0 20 8" fill="none" xmlns="http://www.w3.org/2000/svg">
<path d="M13.125 3.94967C13.125 4.24894 12.7958 4.53595 12.2097 4.74756C11.6237 4.95918 10.8288 5.07806 10 5.07806C9.1712 5.07806 8.37634 4.95918 7.79029 4.74756C7.20424 4.53595 6.875 4.24894 6.875 3.94967C6.875 3.65041 7.20424 3.3634 7.79029 3.15179C8.37634 2.94017 9.1712 2.82129 10 2.82129C10.8288 2.82129 11.6237 2.94017 12.2097 3.15179C12.7958 3.3634 13.125 3.65041 13.125 3.94967Z" fill="black"/>
<path d="M0 3.94924C0 3.94924 3.75 1.4668 10 1.4668C16.25 1.4668 20 3.94924 20 3.94924C20 3.94924 16.25 6.43169 10 6.43169C3.75 6.43169 0 3.94924 0 3.94924ZM10 5.52898C11.1603 5.52898 12.2731 5.36255 13.0936 5.06629C13.9141 4.77003 14.375 4.36822 14.375 3.94924C14.375 3.53027 13.9141 3.12846 13.0936 2.8322C12.2731 2.53594 11.1603 2.3695 10 2.3695C8.83968 2.3695 7.72688 2.53594 6.90641 2.8322C6.08594 3.12846 5.625 3.53027 5.625 3.94924C5.625 4.36822 6.08594 4.77003 6.90641 5.06629C7.72688 5.36255 8.83968 5.52898 10 5.52898Z" fill="black"/>
</svg>
