<svg width="17" height="15" viewBox="0 0 17 15" fill="none" xmlns="http://www.w3.org/2000/svg">
<g clip-path="url(#clip0_1941_3211)">
<path d="M15.227 7.62604C16.8909 5.92061 16.8909 3.15871 15.227 1.45328C13.7545 -0.0559518 11.4339 -0.252152 9.74053 0.988437L9.69341 1.02164C9.26933 1.33254 9.17215 1.93624 9.47548 2.36788C9.77881 2.79952 10.3678 2.90214 10.7889 2.59124L10.8361 2.55804C11.7814 1.86681 13.0742 1.97548 13.8929 2.81763C14.8206 3.76844 14.8206 5.30786 13.8929 6.25868L10.5887 9.65143C9.66101 10.6023 8.15908 10.6023 7.23141 9.65143C6.40976 8.80928 6.30375 7.48418 6.97814 6.51827L7.01054 6.46997C7.31387 6.03531 7.21374 5.43162 6.79261 5.12374C6.37148 4.81585 5.77954 4.91546 5.47915 5.3471L5.44676 5.3954C4.23343 7.128 4.42485 9.50655 5.89734 11.0158C7.56125 12.7212 10.2559 12.7212 11.9198 11.0158L15.227 7.62604ZM-0.0750657 6.91972C-1.73898 8.62516 -1.73898 11.3871 -0.0750657 13.0925C1.39742 14.6017 3.71806 14.7979 5.41142 13.5573L5.45854 13.5241C5.88261 13.2132 5.9798 12.6095 5.67647 12.1779C5.37313 11.7463 4.78414 11.6436 4.36301 11.9545L4.31589 11.9877C3.37055 12.679 2.07771 12.5703 1.25901 11.7281C0.331341 10.7743 0.331341 9.23489 1.25901 8.28407L4.56327 4.89433C5.49093 3.94352 6.99287 3.94352 7.92054 4.89433C8.74218 5.73648 8.8482 7.06159 8.1738 8.03052L8.14141 8.07881C7.83808 8.51347 7.93821 9.11717 8.35934 9.42505C8.78047 9.73293 9.37241 9.63332 9.67279 9.20168L9.70519 9.15339C10.9185 7.41777 10.7271 5.03922 9.25461 3.52999C7.5907 1.82455 4.89605 1.82455 3.23214 3.52999L-0.0750657 6.91972Z" fill="black"/>
</g>
<defs>
<clipPath id="clip0_1941_3211">
<rect width="17" height="15" fill="white"/>
</clipPath>
</defs>
</svg>
