<svg width="17" height="15" viewBox="0 0 17 15" fill="none" xmlns="http://www.w3.org/2000/svg">
<g clip-path="url(#clip0_1934_1493)">
<path d="M15.2271 7.62604C16.891 5.92061 16.891 3.15871 15.2271 1.45328C13.7546 -0.0559518 11.434 -0.252152 9.74065 0.988437L9.69353 1.02164C9.26945 1.33254 9.17227 1.93624 9.4756 2.36788C9.77894 2.79952 10.3679 2.90214 10.7891 2.59124L10.8362 2.55804C11.7815 1.86681 13.0744 1.97548 13.8931 2.81763C14.8207 3.76844 14.8207 5.30786 13.8931 6.25868L10.5888 9.65143C9.66114 10.6023 8.1592 10.6023 7.23153 9.65143C6.40989 8.80928 6.30387 7.48418 6.97827 6.51827L7.01066 6.46997C7.31399 6.03531 7.21386 5.43162 6.79273 5.12374C6.3716 4.81585 5.77966 4.91546 5.47928 5.3471L5.44688 5.3954C4.23355 7.128 4.42497 9.50655 5.89746 11.0158C7.56137 12.7212 10.256 12.7212 11.9199 11.0158L15.2271 7.62604ZM-0.0749437 6.91972C-1.73885 8.62516 -1.73885 11.3871 -0.0749437 13.0925C1.39754 14.6017 3.71818 14.7979 5.41154 13.5573L5.45866 13.5241C5.88274 13.2132 5.97992 12.6095 5.67659 12.1779C5.37326 11.7463 4.78426 11.6436 4.36313 11.9545L4.31601 11.9877C3.37067 12.679 2.07783 12.5703 1.25913 11.7281C0.331463 10.7743 0.331463 9.23489 1.25913 8.28407L4.56339 4.89433C5.49106 3.94352 6.99299 3.94352 7.92066 4.89433C8.7423 5.73648 8.84832 7.06159 8.17392 8.03052L8.14153 8.07881C7.8382 8.51347 7.93833 9.11717 8.35946 9.42505C8.78059 9.73293 9.37253 9.63332 9.67292 9.20168L9.70531 9.15339C10.9186 7.41777 10.7272 5.03922 9.25473 3.52999C7.59082 1.82455 4.89617 1.82455 3.23226 3.52999L-0.0749437 6.91972Z" fill="black"/>
</g>
<defs>
<clipPath id="clip0_1934_1493">
<rect width="17" height="15" fill="white"/>
</clipPath>
</defs>
</svg>
