<svg width="16" height="13" viewBox="0 0 16 13" fill="none" xmlns="http://www.w3.org/2000/svg">
<g opacity="0.75" clip-path="url(#clip0_1941_3174)">
<path d="M5.15312 0.624205C4.9125 0.15194 4.27812 -0.0994275 3.67188 0.0351428L0.921875 0.644518C0.378125 0.766393 0 1.16756 0 1.6246C0 7.90624 6.26875 12.9996 14 12.9996C14.5625 12.9996 15.0563 12.6924 15.2063 12.2506L15.9563 10.0162C16.1219 9.52362 15.8125 9.00819 15.2312 8.81268L12.2312 7.79706C11.7219 7.6244 11.1313 7.74374 10.7844 8.09159L9.52188 9.34335C7.32188 8.49784 5.54063 7.05057 4.5 5.26307L6.04063 4.23983C6.46875 3.95546 6.61562 3.47811 6.40312 3.06424L5.15312 0.626744V0.624205Z" fill="black"/>
</g>
<defs>
<clipPath id="clip0_1941_3174">
<rect width="16" height="13" fill="white"/>
</clipPath>
</defs>
</svg>
