<svg width="27" height="26" viewBox="0 0 27 26" fill="none" xmlns="http://www.w3.org/2000/svg">
<path d="M2.0625 6C0.923828 6 0 6.78385 0 7.75C0 8.30052 0.305078 8.81823 0.825 9.15L10.175 15.1C10.6648 15.4099 11.3352 15.4099 11.825 15.1L21.175 9.15C21.6949 8.81823 22 8.30052 22 7.75C22 6.78385 21.0762 6 19.9375 6H2.0625ZM0 10.0833V17.6667C0 18.9536 1.2332 20 2.75 20H19.25C20.7668 20 22 18.9536 22 17.6667V10.0833L12.65 16.0333C11.6703 16.6568 10.3297 16.6568 9.35 16.0333L0 10.0833Z" fill="black" fill-opacity="0.75"/>
</svg>
