<svg width="16" height="16" viewBox="0 0 16 16" fill="none" xmlns="http://www.w3.org/2000/svg">
<path d="M9.8289 1.22266L14.7784 6.17216C14.4257 6.52485 13.9838 6.61366 13.629 6.61366C13.4853 6.61366 13.3555 6.59899 13.2518 6.58157L12.9977 6.53887L12.8155 6.7211L9.68145 9.8551L9.48167 10.0549L9.54973 10.3291C9.62518 10.6331 9.67417 10.9431 9.69615 11.2555C9.73946 11.9189 9.65106 12.7134 9.1215 13.2431L9.12149 13.243L6.2925 10.415L5.93905 10.0617L5.93894 10.0616L5.58562 9.70817L2.75762 6.87917L2.75761 6.87916C3.28749 6.34932 4.0826 6.26025 4.74492 6.30449C5.05744 6.32644 5.36747 6.37544 5.67153 6.45093L5.94571 6.519L6.1455 6.31927L9.2795 3.18627L9.46262 3.0032L9.41879 2.74801C9.39738 2.62341 9.38642 2.49725 9.386 2.37082C9.38614 2.0177 9.47484 1.57622 9.82811 1.22266L9.8289 1.22266Z" stroke="#131516"/>
</svg>
