<svg width="20" height="81" viewBox="0 0 20 81" fill="none" xmlns="http://www.w3.org/2000/svg">
<path d="M10 19.0104C7.67936 19.0104 5.45376 18.0757 3.81282 16.412C2.17187 14.7483 1.25 12.4918 1.25 10.1389C1.25 7.78601 2.17187 5.52951 3.81282 3.86577C5.45376 2.20204 7.67936 1.26736 10 1.26736C12.3206 1.26736 14.5462 2.20204 16.1872 3.86577C17.8281 5.52951 18.75 7.78601 18.75 10.1389C18.75 12.4918 17.8281 14.7483 16.1872 16.412C14.5462 18.0757 12.3206 19.0104 10 19.0104ZM10 20.2778C12.6522 20.2778 15.1957 19.2096 17.0711 17.3082C18.9464 15.4068 20 12.8279 20 10.1389C20 7.44989 18.9464 4.87102 17.0711 2.96961C15.1957 1.0682 12.6522 0 10 0C7.34784 0 4.8043 1.0682 2.92893 2.96961C1.05357 4.87102 0 7.44989 0 10.1389C0 12.8279 1.05357 15.4068 2.92893 17.3082C4.8043 19.2096 7.34784 20.2778 10 20.2778Z" fill="#FF4741"/>
<path d="M5.8075 5.88816C5.86556 5.82915 5.93453 5.78233 6.01046 5.75038C6.08639 5.71844 6.16779 5.70199 6.25 5.70199C6.33221 5.70199 6.41361 5.71844 6.48954 5.75038C6.56547 5.78233 6.63444 5.82915 6.6925 5.88816L10 9.24287L13.3075 5.88816C13.3656 5.82924 13.4346 5.78251 13.5105 5.75062C13.5864 5.71874 13.6678 5.70232 13.75 5.70232C13.8322 5.70232 13.9136 5.71874 13.9895 5.75062C14.0654 5.78251 14.1344 5.82924 14.1925 5.88816C14.2506 5.94708 14.2967 6.01702 14.3282 6.094C14.3596 6.17098 14.3758 6.25349 14.3758 6.33681C14.3758 6.42013 14.3596 6.50263 14.3282 6.57961C14.2967 6.65659 14.2506 6.72653 14.1925 6.78545L10.8837 10.1389L14.1925 13.4923C14.2506 13.5512 14.2967 13.6212 14.3282 13.6982C14.3596 13.7751 14.3758 13.8577 14.3758 13.941C14.3758 14.0243 14.3596 14.1068 14.3282 14.1838C14.2967 14.2608 14.2506 14.3307 14.1925 14.3896C14.1344 14.4485 14.0654 14.4953 13.9895 14.5272C13.9136 14.559 13.8322 14.5755 13.75 14.5755C13.6678 14.5755 13.5864 14.559 13.5105 14.5272C13.4346 14.4953 13.3656 14.4485 13.3075 14.3896L10 11.0349L6.6925 14.3896C6.63439 14.4485 6.5654 14.4953 6.48948 14.5272C6.41356 14.559 6.33218 14.5755 6.25 14.5755C6.16782 14.5755 6.08645 14.559 6.01052 14.5272C5.9346 14.4953 5.86561 14.4485 5.8075 14.3896C5.74939 14.3307 5.70329 14.2608 5.67185 14.1838C5.6404 14.1068 5.62421 14.0243 5.62421 13.941C5.62421 13.8577 5.6404 13.7751 5.67185 13.6982C5.70329 13.6212 5.74939 13.5512 5.8075 13.4923L9.11625 10.1389L5.8075 6.78545C5.7493 6.72659 5.70312 6.65666 5.67161 6.57968C5.6401 6.50269 5.62388 6.42016 5.62388 6.33681C5.62388 6.25346 5.6401 6.17092 5.67161 6.09394C5.70312 6.01695 5.7493 5.94702 5.8075 5.88816Z" fill="#FF4741"/>
<path d="M10 50.4411C7.67936 50.4411 5.45376 49.5064 3.81282 47.8427C2.17187 46.1789 1.25 43.9224 1.25 41.5696C1.25 39.2167 2.17187 36.9602 3.81282 35.2964C5.45376 33.6327 7.67936 32.698 10 32.698C12.3206 32.698 14.5462 33.6327 16.1872 35.2964C17.8281 36.9602 18.75 39.2167 18.75 41.5696C18.75 43.9224 17.8281 46.1789 16.1872 47.8427C14.5462 49.5064 12.3206 50.4411 10 50.4411ZM10 51.7084C12.6522 51.7084 15.1957 50.6402 17.0711 48.7388C18.9464 46.8374 20 44.2586 20 41.5696C20 38.8806 18.9464 36.3017 17.0711 34.4003C15.1957 32.4989 12.6522 31.4307 10 31.4307C7.34784 31.4307 4.8043 32.4989 2.92893 34.4003C1.05357 36.3017 0 38.8806 0 41.5696C0 44.2586 1.05357 46.8374 2.92893 48.7388C4.8043 50.6402 7.34784 51.7084 10 51.7084Z" fill="#FF4741"/>
<path d="M5.8075 37.3188C5.86556 37.2598 5.93453 37.213 6.01046 37.181C6.08639 37.1491 6.16779 37.1327 6.25 37.1327C6.33221 37.1327 6.41361 37.1491 6.48954 37.181C6.56547 37.213 6.63444 37.2598 6.6925 37.3188L10 40.6735L13.3075 37.3188C13.3656 37.2599 13.4346 37.2132 13.5105 37.1813C13.5864 37.1494 13.6678 37.133 13.75 37.133C13.8322 37.133 13.9136 37.1494 13.9895 37.1813C14.0654 37.2132 14.1344 37.2599 14.1925 37.3188C14.2506 37.3777 14.2967 37.4477 14.3282 37.5247C14.3596 37.6016 14.3758 37.6842 14.3758 37.7675C14.3758 37.8508 14.3596 37.9333 14.3282 38.0103C14.2967 38.0873 14.2506 38.1572 14.1925 38.2161L10.8837 41.5696L14.1925 44.923C14.2506 44.9819 14.2967 45.0518 14.3282 45.1288C14.3596 45.2058 14.3758 45.2883 14.3758 45.3716C14.3758 45.455 14.3596 45.5375 14.3282 45.6144C14.2967 45.6914 14.2506 45.7614 14.1925 45.8203C14.1344 45.8792 14.0654 45.9259 13.9895 45.9578C13.9136 45.9897 13.8322 46.0061 13.75 46.0061C13.6678 46.0061 13.5864 45.9897 13.5105 45.9578C13.4346 45.9259 13.3656 45.8792 13.3075 45.8203L10 42.4656L6.6925 45.8203C6.63439 45.8792 6.5654 45.9259 6.48948 45.9578C6.41356 45.9897 6.33218 46.0061 6.25 46.0061C6.16782 46.0061 6.08645 45.9897 6.01052 45.9578C5.9346 45.9259 5.86561 45.8792 5.8075 45.8203C5.74939 45.7614 5.70329 45.6914 5.67185 45.6144C5.6404 45.5375 5.62421 45.455 5.62421 45.3716C5.62421 45.2883 5.6404 45.2058 5.67185 45.1288C5.70329 45.0518 5.74939 44.9819 5.8075 44.923L9.11625 41.5696L5.8075 38.2161C5.7493 38.1573 5.70312 38.0873 5.67161 38.0103C5.6401 37.9334 5.62388 37.8508 5.62388 37.7675C5.62388 37.6841 5.6401 37.6016 5.67161 37.5246C5.70312 37.4476 5.7493 37.3777 5.8075 37.3188Z" fill="#FF4741"/>
<path d="M10 78.8307C7.67936 78.8307 5.45376 77.8961 3.81282 76.2323C2.17187 74.5686 1.25 72.3121 1.25 69.9592C1.25 67.6063 2.17187 65.3498 3.81282 63.6861C5.45376 62.0224 7.67936 61.0877 10 61.0877C12.3206 61.0877 14.5462 62.0224 16.1872 63.6861C17.8281 65.3498 18.75 67.6063 18.75 69.9592C18.75 72.3121 17.8281 74.5686 16.1872 76.2323C14.5462 77.8961 12.3206 78.8307 10 78.8307ZM10 80.0981C12.6522 80.0981 15.1957 79.0299 17.0711 77.1285C18.9464 75.2271 20 72.6482 20 69.9592C20 67.2702 18.9464 64.6913 17.0711 62.7899C15.1957 60.8885 12.6522 59.8203 10 59.8203C7.34784 59.8203 4.8043 60.8885 2.92893 62.7899C1.05357 64.6913 0 67.2702 0 69.9592C0 72.6482 1.05357 75.2271 2.92893 77.1285C4.8043 79.0299 7.34784 80.0981 10 80.0981Z" fill="#FF4741"/>
<path d="M5.8075 65.7085C5.86556 65.6495 5.93453 65.6026 6.01046 65.5707C6.08639 65.5387 6.16779 65.5223 6.25 65.5223C6.33221 65.5223 6.41361 65.5387 6.48954 65.5707C6.56547 65.6026 6.63444 65.6495 6.6925 65.7085L10 69.0632L13.3075 65.7085C13.3656 65.6496 13.4346 65.6028 13.5105 65.5709C13.5864 65.5391 13.6678 65.5226 13.75 65.5226C13.8322 65.5226 13.9136 65.5391 13.9895 65.5709C14.0654 65.6028 14.1344 65.6496 14.1925 65.7085C14.2506 65.7674 14.2967 65.8373 14.3282 65.9143C14.3596 65.9913 14.3758 66.0738 14.3758 66.1571C14.3758 66.2404 14.3596 66.3229 14.3282 66.3999C14.2967 66.4769 14.2506 66.5469 14.1925 66.6058L10.8837 69.9592L14.1925 73.3126C14.2506 73.3716 14.2967 73.4415 14.3282 73.5185C14.3596 73.5955 14.3758 73.678 14.3758 73.7613C14.3758 73.8446 14.3596 73.9271 14.3282 74.0041C14.2967 74.0811 14.2506 74.151 14.1925 74.2099C14.1344 74.2688 14.0654 74.3156 13.9895 74.3475C13.9136 74.3794 13.8322 74.3958 13.75 74.3958C13.6678 74.3958 13.5864 74.3794 13.5105 74.3475C13.4346 74.3156 13.3656 74.2688 13.3075 74.2099L10 70.8552L6.6925 74.2099C6.63439 74.2688 6.5654 74.3156 6.48948 74.3475C6.41356 74.3794 6.33218 74.3958 6.25 74.3958C6.16782 74.3958 6.08645 74.3794 6.01052 74.3475C5.9346 74.3156 5.86561 74.2688 5.8075 74.2099C5.74939 74.151 5.70329 74.0811 5.67185 74.0041C5.6404 73.9271 5.62421 73.8446 5.62421 73.7613C5.62421 73.678 5.6404 73.5955 5.67185 73.5185C5.70329 73.4415 5.74939 73.3716 5.8075 73.3126L9.11625 69.9592L5.8075 66.6058C5.7493 66.5469 5.70312 66.477 5.67161 66.4C5.6401 66.323 5.62388 66.2405 5.62388 66.1571C5.62388 66.0738 5.6401 65.9912 5.67161 65.9143C5.70312 65.8373 5.7493 65.7673 5.8075 65.7085Z" fill="#FF4741"/>
</svg>
